# xmcd
#
# Track frame offsets: 
#        150
#        17793
#        38842
#        67593
#        83417
#        105964
#        132623
#        167113
#        189962
#
# Disc length: 2756 seconds
#
# Revision: 0
# Processed by: cddbd v1.5.2PL0 Copyright (c) Steve Scherf et al.
# Submitted via: ExactAudioCopy v1.3
#
DISCID=620ac209
DTITLE=Bob Lanza Blues Band - From Hero To Zero
DYEAR=2015
DGENRE=Blues
TTITLE0=For Loving You
TTITLE1=All Over Again
TTITLE2=Love And Kindness
TTITLE3=Hero To Zero
TTITLE4=Ain't Nobody's Business
TTITLE5=I Wouldn't Treat A Dog
TTITLE6=My Home Is A Prison
TTITLE7=It Ain't About Me
TTITLE8=Evil World
EXTD=
EXTT0=
EXTT1=
EXTT2=
EXTT3=
EXTT4=
EXTT5=
EXTT6=
EXTT7=
EXTT8=
PLAYORDER=
